<svg xmlns="http://www.w3.org/2000/svg"  viewBox="0 0 50 50" width="50px" height="50px"><path d="M 11 4 C 7.14 4 4 7.14 4 11 L 4 39 C 4 42.86 7.14 46 11 46 L 39 46 C 42.86 46 46 42.86 46 39 L 46 11 C 46 7.14 42.86 4 39 4 L 11 4 z M 25 11 C 32.72 11 39 17.28 39 25 C 39 28.231 37.889922 31.201266 36.044922 33.572266 L 39.611328 37.851562 C 39.786328 38.063563 39.823031 38.348656 39.707031 38.597656 C 39.590031 38.846656 39.347266 39 39.072266 39 L 33.96875 39 C 33.52375 39 33.103406 38.804891 32.816406 38.462891 L 32.816406 38.460938 L 31.792969 37.232422 C 29.778969 38.355422 27.464 39 25 39 C 17.28 39 11 32.72 11 25 C 11 17.28 17.28 11 25 11 z M 25 17 C 20.589 17 17 20.589 17 25 C 17 29.411 20.589 33 25 33 C 25.996 33 26.947125 32.809609 27.828125 32.474609 L 23.390625 27.148438 C 23.214625 26.937438 23.176969 26.651344 23.292969 26.402344 C 23.409969 26.153344 23.652734 26 23.927734 26 L 29.03125 26 C 29.47625 26 29.896594 26.195109 30.183594 26.537109 L 32.048828 28.777344 C 32.655828 27.651344 33 26.365 33 25 C 33 20.589 29.411 17 25 17 z"/></svg>